{"title":"Lights Out 2016 720p HDRIP x264 AC3 TiTAN","uid":15977708,"size":2479051614,"categoryP":"video","categoryS":"hd___movies","magnet":"?xt=urn:btih:feec5091e1c30174e52268625ed5514600cb2f4f&amp;dn=Lights+Out+2016+720p+HDRIP+x264+AC3+TiTAN++&amp;tr=udp%3A%2F%2Ftracker.leechers-paradise.org%3A6969&amp;tr=udp%3A%2F%2Fzer0day.ch%3A1337&amp;tr=udp%3A%2F%2Fopen.demonii.com%3A1337&amp;tr=udp%3A%2F%2Ftracker.coppersurfer.tk%3A6969&amp;tr=udp%3A%2F%2Fexodus.desync.com%3A6969","seeders":23,"leechers":13,"uploader":"makintos13","files":2,"time":1475860461,"description":"Lights Out 2016 720p HDRIP x264 AC3 TiTAN  \r\n\r\nScreens:\r\n \nhttps://imgmak.com/aji\r\n \nhttps://imgmak.com/ajj\r\n \nhttps://imgmak.com/ajw\r\n \nhttps://imgmak.com/ajJ\r\n\r\n \nhttp://www.imdb.com/title/tt4786282/\r\n\r\nSource: 1080p FGT\r\n\r\nGeneral\r\n\r\nFormat                      : Matroska\r\nFormat version              : Version 2\r\nFile size                   : 2.31 GiB\r\nDuration                    : 1 h 20 min\r\nOverall bit rate mode       : Variable\r\nOverall bit rate            : 4 085 kb/s\r\n\r\nVideo\r\nID                          : 1\r\nFormat                      : AVC\r\nFormat/Info                 : Advanced Video Codec\r\nFormat profile              :   \r\nFormat settings, CABAC      : Yes\r\nFormat settings, ReFrames   : 3 frames\r\nCodec ID                    : V_MPEG4/ISO/AVC\r\nDuration                    : 1 h 20 min\r\nBit rate mode               : Variable\r\nBit rate                    : 3 699 kb/s\r\nMaximum bit rate            : 40.0 Mb/s\r\nWidth                       : 1 280 pixels\r\nHeight                      : 528 pixels\r\nDisplay aspect ratio        : 2.40:1\r\nFrame rate mode             : Constant\r\nFrame rate                  : 23.976 (24000/1001) FPS\r\nColor space                 : YUV\r\nChroma subsampling          : 4:2:0\r\nBit depth                   : 8 bits\r\nScan type                   : Progressive\r\nBits/(Pixel*Frame)          : 0.228\r\nStream size                 : 2.09 GiB (91%)\r\nDefault                     : Yes\r\nForced                      : No\r\nColor range                 : Full\r\nColor primaries             : BT.709\r\nTransfer characteristics    : BT.709\r\nMatrix coefficients         : BT.709\r\n\r\nAudio\r\nID                          : 2\r\nFormat                      : AC-3\r\nFormat/Info                 : Audio Coding 3\r\nMode extension              : CM (complete main)\r\nFormat settings, Endianness : Big\r\nCodec ID                    : A_AC3\r\nDuration                    : 1 h 20 min\r\nBit rate mode               : Constant\r\nBit rate                    : 384 kb/s\r\nChannel(s)                  : 6 channels\r\nChannel positions           : Front: L C R, Side: L R, LFE\r\nSampling rate               : 48.0 kHz\r\nFrame rate                  : 31.250 FPS (1536 spf)\r\nCompression mode            : Lossy\r\nStream size                 : 222 MiB (9%)\r\nLanguage                    : English\r\nDefault                     : Yes\r\nForced                      : No","torrent":{"xt":"urn:btih:feec5091e1c30174e52268625ed5514600cb2f4f","amp;dn":"Lights+Out+2016+720p+HDRIP+x264+AC3+TiTAN++","amp;tr":["udp%3A%2F%2Ftracker.leechers-paradise.org%3A6969","udp%3A%2F%2Fzer0day.ch%3A1337","udp%3A%2F%2Fopen.demonii.com%3A1337","udp%3A%2F%2Ftracker.coppersurfer.tk%3A6969","udp%3A%2F%2Fexodus.desync.com%3A6969"],"infoHash":"feec5091e1c30174e52268625ed5514600cb2f4f","infoHashBuffer":{"type":"Buffer","data":[254,236,80,145,225,195,1,116,229,34,104,98,94,213,81,70,0,203,47,79]},"announce":[],"urlList":[]}}